<?xml version="1.0" standalone="no"?>
<!DOCTYPE svg PUBLIC "-//W3C//DTD SVG 20010904//EN"
 "http://www.w3.org/TR/2001/REC-SVG-20010904/DTD/svg10.dtd">
<svg version="1.0" xmlns="http://www.w3.org/2000/svg"
 width="4511.000000pt" height="2025.000000pt" viewBox="0 0 4511.000000 2025.000000"
 preserveAspectRatio="xMidYMid meet">

<g transform="translate(0.000000,2025.000000) scale(0.100000,-0.100000)"
fill="#000000" stroke="none">
<path d="M8551 18772 c-294 -482 -539 -882 -545 -889 -8 -9 -240 83 -970 388
-527 220 -961 397 -963 395 -2 -2 26 -382 64 -844 l68 -840 110 -12 c989 -104
1914 -501 2706 -1161 152 -127 481 -453 613 -609 728 -854 1163 -1881 1293
-3050 26 -238 26 -863 -1 -1105 -10 -93 -19 -174 -20 -179 -1 -10 1193 -511
1201 -502 3 3 -4 122 -16 263 -44 500 -148 1808 -145 1812 2 2 1940 466 2022
483 8 2 -293 360 -668 797 -594 692 -679 795 -668 809 7 9 311 365 676 790
364 425 662 776 662 780 0 5 -453 115 -1007 247 -555 131 -1011 241 -1014 244
-4 3 31 471 78 1040 46 568 82 1036 79 1038 -2 2 -435 -176 -962 -396 -527
-220 -961 -398 -964 -396 -4 2 -249 402 -546 889 -296 487 -541 886 -544 886
-3 0 -245 -395 -539 -878z"/>
<path d="M4955 15203 c-759 -17 -1508 -150 -2105 -374 -427 -160 -692 -308
-870 -488 -79 -79 -103 -111 -137 -181 -55 -114 -75 -207 -76 -355 -1 -241 75
-396 318 -644 l102 -105 204 96 c648 305 1334 538 1829 622 368 62 609 80
1008 73 391 -6 581 -31 871 -113 426 -121 782 -347 996 -633 124 -164 226
-397 279 -632 48 -216 57 -338 54 -764 l-3 -390 -1490 -146 c-1524 -150 -1640
-163 -1900 -205 -928 -152 -1689 -483 -2169 -944 -365 -350 -589 -826 -671
-1420 -22 -162 -31 -563 -16 -741 86 -1007 573 -1716 1496 -2177 613 -306
1368 -463 2350 -488 771 -19 1526 68 2167 251 760 218 1286 478 1579 782 128
133 175 209 223 363 59 184 56 44 56 2904 0 1755 -4 2677 -11 2770 -43 576
-180 1053 -417 1454 -107 180 -212 313 -371 473 -553 553 -1405 898 -2442 989
-153 13 -565 30 -669 28 -41 -1 -124 -3 -185 -5z m2475 -6666 l0 -1483 -82
-46 c-306 -171 -844 -344 -1253 -402 -454 -65 -1122 -74 -1558 -20 -999 123
-1575 556 -1702 1279 -45 256 -25 577 51 810 164 500 600 814 1369 985 195 43
418 75 855 121 217 23 807 85 1310 139 503 54 936 98 963 99 l47 1 0 -1483z"/>
<path d="M37113 13706 c-161 -178 -303 -341 -315 -362 -15 -26 -21 -53 -21
-94 0 -103 73 -192 186 -225 109 -32 90 -44 410 254 294 275 339 322 363 378
19 44 18 157 -2 198 -40 84 -154 155 -274 170 l-55 7 -292 -326z"/>
<path d="M41663 13831 c-91 -31 -163 -102 -198 -196 -26 -65 -18 -205 15 -268
48 -95 146 -163 253 -175 182 -21 309 42 375 187 37 80 36 203 -1 284 -34 74
-102 140 -173 166 -71 27 -197 28 -271 2z"/>
<path d="M19300 13759 c-36 -4 -87 -14 -115 -22 l-50 -13 -3 -1693 c-1 -1107
1 -1707 8 -1731 26 -95 94 -144 224 -160 85 -11 224 0 293 23 l38 12 3 987 2
987 46 32 c69 47 223 117 310 140 104 28 297 30 398 5 199 -48 327 -167 382
-352 16 -54 18 -133 23 -869 l6 -810 22 -42 c29 -54 63 -80 132 -100 95 -27
327 -17 394 18 16 9 17 60 17 862 0 524 -4 885 -10 937 -36 290 -158 509 -363
649 -286 195 -741 244 -1117 119 -52 -17 -127 -46 -167 -64 l-72 -32 -3 481
c-3 479 -3 482 -26 524 -25 48 -78 87 -137 101 -63 16 -164 21 -235 11z"/>
<path d="M43080 13759 c-36 -4 -87 -14 -115 -21 l-50 -13 -3 -1695 c-2 -1303
0 -1705 10 -1739 17 -63 73 -116 145 -137 75 -22 242 -22 341 1 l72 17 0 1701
c0 1152 -3 1714 -11 1740 -16 58 -74 112 -139 130 -73 21 -170 27 -250 16z"/>
<path d="M16945 13521 c-72 -12 -167 -38 -219 -60 -44 -19 -44 -20 -96 -153
-278 -711 -747 -2007 -949 -2620 -72 -218 -81 -255 -81 -320 0 -169 103 -248
323 -248 81 0 148 11 198 31 23 9 37 46 159 429 l134 420 668 0 667 0 107
-327 c58 -181 119 -355 134 -388 59 -124 131 -165 290 -165 126 0 238 39 298
103 l22 23 -110 345 c-410 1276 -912 2708 -985 2803 -37 49 -107 89 -195 111
-74 19 -288 28 -365 16z m412 -1254 c138 -413 254 -762 258 -774 l6 -23 -535
0 c-313 0 -536 4 -536 9 0 19 412 1213 522 1514 5 15 15 27 21 27 7 0 125
-337 264 -753z"/>
<path d="M33619 13474 c-63 -19 -140 -90 -170 -156 l-24 -53 0 -1475 0 -1475
22 -41 c31 -58 84 -101 151 -120 89 -27 278 -21 395 12 16 5 17 46 17 685 l0
679 623 0 c423 0 635 4 662 11 53 15 110 73 125 129 20 73 9 225 -21 285 l-24
50 -682 3 -683 2 0 500 0 500 728 0 c684 0 729 2 767 19 51 23 91 70 106 123
18 69 7 224 -20 286 l-23 52 -952 -1 c-794 0 -959 -3 -997 -15z"/>
<path d="M23180 12799 c-513 -49 -913 -369 -1060 -847 -55 -181 -65 -256 -65
-502 0 -195 3 -240 23 -338 110 -547 458 -899 987 -998 135 -26 428 -26 565 0
546 100 911 493 996 1068 13 89 15 158 11 318 -7 288 -37 419 -142 636 -89
183 -229 348 -385 454 -246 167 -582 243 -930 209z m346 -474 c216 -50 377
-204 464 -442 49 -135 64 -243 64 -443 -1 -265 -45 -444 -148 -599 -91 -137
-212 -221 -376 -262 -120 -31 -310 -24 -423 15 -279 95 -435 341 -467 734 -19
245 16 472 101 644 143 293 449 431 785 353z"/>
<path d="M26240 12800 c-398 -36 -778 -187 -905 -359 -75 -103 -70 -20 -70
-1136 l0 -1000 22 -40 c41 -78 97 -111 209 -125 80 -10 199 -2 287 20 l47 12
0 1003 0 1002 78 36 c92 42 215 80 332 102 129 25 373 30 499 11 58 -9 108
-16 111 -16 4 0 20 28 35 62 33 74 45 184 25 242 -26 81 -109 142 -232 171
-78 19 -311 27 -438 15z"/>
<path d="M28338 12800 c-281 -24 -592 -120 -764 -237 -76 -52 -150 -131 -177
-191 l-22 -47 -3 -1005 c-3 -1117 -6 -1058 64 -1119 19 -17 60 -38 92 -47 77
-23 253 -21 342 3 l65 18 5 1005 5 1005 89 38 c238 102 546 141 811 102 55 -8
104 -15 108 -15 13 0 58 111 68 168 25 155 -52 258 -226 302 -95 24 -297 33
-457 20z"/>
<path d="M30195 12798 c-295 -24 -586 -121 -686 -231 -61 -66 -74 -198 -28
-288 32 -63 89 -121 113 -116 12 3 72 26 134 51 245 101 461 143 691 133 378
-16 541 -165 541 -494 0 -68 -3 -83 -15 -83 -44 0 -824 -83 -905 -96 -252 -41
-479 -154 -600 -300 -111 -133 -165 -354 -140 -572 30 -265 158 -448 399 -570
113 -58 190 -85 327 -113 141 -29 528 -38 700 -15 353 46 671 190 761 344 l28
47 0 795 c0 791 0 795 -22 880 -28 105 -88 228 -145 297 -214 257 -623 374
-1153 331z m765 -1797 l0 -348 -67 -30 c-245 -109 -647 -118 -844 -17 -113 57
-179 157 -187 285 -7 116 15 180 87 250 100 98 210 127 647 173 176 19 329 34
342 35 l22 1 0 -349z"/>
<path d="M36805 12800 c-228 -19 -419 -67 -567 -141 -144 -72 -188 -131 -188
-254 0 -49 7 -83 21 -114 24 -54 85 -131 104 -131 7 0 49 15 93 34 105 45 306
110 412 132 65 14 129 19 270 19 162 0 195 -3 263 -23 188 -54 282 -140 323
-297 17 -63 19 -255 3 -255 -44 0 -831 -84 -901 -96 -420 -72 -671 -272 -734
-583 -20 -103 -15 -323 10 -416 70 -260 294 -453 619 -535 173 -43 292 -53
558 -47 199 4 252 9 355 31 151 32 302 84 419 144 106 55 213 153 235 217 12
33 15 167 18 720 4 860 -3 946 -94 1131 -115 234 -368 392 -719 449 -113 19
-368 26 -500 15z m745 -1801 l0 -350 -57 -25 c-193 -86 -519 -114 -730 -63
-89 21 -168 66 -221 124 -64 70 -87 133 -86 240 1 179 100 279 335 336 65 16
608 80 737 88 l22 1 0 -351z"/>
<path d="M39893 12799 c-628 -60 -1049 -448 -1159 -1064 -23 -132 -24 -437 -1
-580 94 -589 461 -951 1062 -1047 124 -19 469 -16 580 5 181 36 316 94 407
176 131 118 131 296 1 411 -25 22 -50 40 -56 40 -6 0 -31 -13 -56 -30 -67 -43
-168 -86 -268 -116 -109 -32 -327 -44 -450 -24 -160 25 -311 101 -420 209 -99
98 -156 202 -200 367 -24 90 -26 116 -27 289 -1 229 15 308 99 481 113 234
304 374 566 415 103 16 303 6 404 -20 63 -17 189 -72 337 -149 13 -7 97 80
118 122 14 30 20 62 20 112 0 58 -5 77 -30 120 -119 208 -501 325 -927 283z"/>
<path d="M41685 12754 c-11 -2 -55 -12 -97 -21 l-78 -16 0 -1206 c0 -1148 1
-1208 19 -1246 41 -91 131 -129 301 -127 60 0 136 7 178 17 l72 17 0 1192 c0
1338 4 1266 -70 1329 -22 18 -59 39 -82 46 -43 13 -208 24 -243 15z"/>
<path d="M15880 8929 c-81 -8 -220 -37 -313 -64 -51 -15 -57 -19 -57 -43 0
-88 272 -3969 281 -4013 45 -219 232 -369 459 -369 36 0 551 34 1145 74 l1079
75 65 33 c75 38 118 88 151 175 29 75 31 236 6 333 -18 72 -73 192 -102 228
l-19 22 -930 -64 c-511 -35 -933 -61 -936 -58 -3 4 -56 754 -119 1666 -62 913
-118 1687 -125 1722 -17 77 -53 149 -97 191 -89 85 -257 117 -488 92z"/>
<path d="M24146 8790 c-94 -37 -167 -132 -200 -263 -34 -131 -31 -258 10 -408
l16 -55 1021 -158 c562 -87 1035 -161 1050 -165 26 -6 -43 -72 -1160 -1121
-1290 -1211 -1334 -1253 -1411 -1356 -166 -219 -199 -476 -91 -698 18 -36 44
-79 58 -97 l26 -31 1470 -229 c1050 -164 1486 -228 1526 -225 194 14 309 178
312 446 1 88 -28 252 -51 286 -4 6 -499 87 -1099 180 -601 93 -1093 171 -1092
174 0 3 502 475 1115 1050 614 575 1183 1109 1265 1188 225 217 310 341 343
504 31 149 15 290 -44 410 -35 70 -97 158 -112 158 -5 0 -632 97 -1393 215
-770 120 -1412 215 -1447 215 -37 -1 -83 -9 -112 -20z"/>
<path d="M19670 7794 c-53 -6 -159 -24 -213 -36 l-48 -10 4 -1351 c4 -1502 -1
-1407 72 -1623 173 -517 594 -839 1203 -919 149 -20 466 -20 616 0 385 50 671
184 906 424 167 170 264 339 324 562 52 199 51 156 51 1474 0 1179 -1 1232
-19 1284 -62 180 -305 240 -683 170 l-113 -21 0 -1277 c0 -849 -4 -1297 -11
-1337 -57 -326 -268 -545 -588 -609 -103 -21 -312 -16 -406 10 -93 25 -213 88
-287 149 -111 92 -185 212 -230 372 l-23 79 -5 1200 c-5 1084 -7 1205 -22
1248 -36 106 -93 158 -208 191 -54 16 -251 28 -320 20z"/>
<path d="M4775 2923 c-202 -9 -434 -27 -590 -44 -1377 -152 -2156 -599 -1816
-1041 236 -308 993 -554 1976 -643 1616 -145 3306 192 3561 711 25 50 29 71
29 139 0 68 -4 89 -29 139 -164 335 -956 615 -2011 710 -334 31 -824 43 -1120
29z"/>
</g>
</svg>
