<svg width="297" height="120" viewBox="0 0 297 120" fill="none" xmlns="http://www.w3.org/2000/svg">
<path d="M123.34 22.8281V40.7472H121.17V22.8281H123.34ZM127.751 32.6626V40.7472H125.686V27.3079H127.681V29.4078H127.856C128.171 28.7253 128.649 28.177 129.291 27.7629C129.932 27.3429 130.761 27.1329 131.775 27.1329C132.685 27.1329 133.482 27.3196 134.164 27.6929C134.847 28.0604 135.377 28.6203 135.757 29.3728C136.136 30.1194 136.325 31.0644 136.325 32.2076V40.7472H134.26V32.3476C134.26 31.2919 133.986 30.4694 133.438 29.8803C132.89 29.2853 132.137 28.9878 131.181 28.9878C130.521 28.9878 129.932 29.1307 129.413 29.4165C128.9 29.7024 128.494 30.1194 128.197 30.6677C127.899 31.216 127.751 31.881 127.751 32.6626ZM147.893 30.3177L146.038 30.8427C145.922 30.5336 145.75 30.2332 145.522 29.9415C145.3 29.644 144.997 29.399 144.612 29.2065C144.227 29.0141 143.734 28.9178 143.134 28.9178C142.311 28.9178 141.626 29.1074 141.077 29.4865C140.535 29.8598 140.264 30.3352 140.264 30.9127C140.264 31.426 140.45 31.8314 140.824 32.1289C141.197 32.4264 141.78 32.6743 142.574 32.8726L144.568 33.3626C145.77 33.6542 146.665 34.1005 147.255 34.7013C147.844 35.2962 148.138 36.0633 148.138 37.0024C148.138 37.7723 147.917 38.4606 147.473 39.0673C147.036 39.6739 146.423 40.1522 145.636 40.5022C144.848 40.8522 143.933 41.0272 142.889 41.0272C141.518 41.0272 140.383 40.7297 139.485 40.1347C138.587 39.5398 138.018 38.6706 137.779 37.5274L139.739 37.0374C139.925 37.7607 140.278 38.3032 140.797 38.6648C141.322 39.0264 142.008 39.2073 142.854 39.2073C143.816 39.2073 144.58 39.0031 145.146 38.5948C145.718 38.1807 146.003 37.6849 146.003 37.1074C146.003 36.6407 145.84 36.2499 145.513 35.9349C145.187 35.6141 144.685 35.375 144.008 35.2175L141.769 34.6925C140.538 34.4009 139.634 33.9488 139.056 33.3363C138.485 32.718 138.199 31.9452 138.199 31.0177C138.199 30.2594 138.412 29.5886 138.837 29.0053C139.269 28.422 139.855 27.9641 140.596 27.6316C141.343 27.2991 142.189 27.1329 143.134 27.1329C144.463 27.1329 145.508 27.4246 146.266 28.0079C147.03 28.5912 147.572 29.3611 147.893 30.3177ZM155.367 27.3079V29.0578H148.402V27.3079H155.367ZM150.432 24.0881H152.497V36.8974C152.497 37.4807 152.581 37.9182 152.75 38.2098C152.925 38.4956 153.147 38.6881 153.415 38.7873C153.69 38.8806 153.978 38.9273 154.282 38.9273C154.509 38.9273 154.696 38.9156 154.842 38.8923C154.987 38.8631 155.104 38.8398 155.192 38.8223L155.612 40.6772C155.472 40.7297 155.276 40.7822 155.025 40.8347C154.774 40.893 154.457 40.9222 154.072 40.9222C153.488 40.9222 152.917 40.7968 152.357 40.546C151.803 40.2951 151.342 39.9131 150.974 39.3998C150.613 38.8865 150.432 38.239 150.432 37.4574V24.0881ZM156.748 40.7472V27.3079H158.813V40.7472H156.748ZM157.798 25.068C157.395 25.068 157.048 24.9309 156.757 24.6568C156.471 24.3826 156.328 24.0531 156.328 23.6681C156.328 23.2831 156.471 22.9535 156.757 22.6794C157.048 22.4052 157.395 22.2682 157.798 22.2682C158.2 22.2682 158.544 22.4052 158.83 22.6794C159.122 22.9535 159.268 23.2831 159.268 23.6681C159.268 24.0531 159.122 24.3826 158.83 24.6568C158.544 24.9309 158.2 25.068 157.798 25.068ZM166.715 27.3079V29.0578H159.75V27.3079H166.715ZM161.78 24.0881H163.845V36.8974C163.845 37.4807 163.929 37.9182 164.099 38.2098C164.274 38.4956 164.495 38.6881 164.764 38.7873C165.038 38.8806 165.327 38.9273 165.63 38.9273C165.857 38.9273 166.044 38.9156 166.19 38.8923C166.336 38.8631 166.452 38.8398 166.54 38.8223L166.96 40.6772C166.82 40.7297 166.624 40.7822 166.374 40.8347C166.123 40.893 165.805 40.9222 165.42 40.9222C164.837 40.9222 164.265 40.7968 163.705 40.546C163.151 40.2951 162.69 39.9131 162.322 39.3998C161.961 38.8865 161.78 38.239 161.78 37.4574V24.0881ZM176.566 35.2525V27.3079H178.631V40.7472H176.566V38.4723H176.426C176.111 39.1548 175.621 39.7352 174.956 40.2135C174.291 40.6859 173.451 40.9222 172.436 40.9222C171.596 40.9222 170.849 40.7384 170.196 40.371C169.543 39.9976 169.029 39.4377 168.656 38.691C168.283 37.9386 168.096 36.9907 168.096 35.8474V27.3079H170.161V35.7075C170.161 36.6874 170.435 37.469 170.983 38.0523C171.538 38.6356 172.243 38.9273 173.101 38.9273C173.614 38.9273 174.136 38.796 174.667 38.5336C175.204 38.2711 175.653 37.8686 176.014 37.3261C176.382 36.7836 176.566 36.0924 176.566 35.2525ZM186.533 27.3079V29.0578H179.568V27.3079H186.533ZM181.598 24.0881H183.663V36.8974C183.663 37.4807 183.747 37.9182 183.916 38.2098C184.091 38.4956 184.313 38.6881 184.581 38.7873C184.856 38.8806 185.144 38.9273 185.448 38.9273C185.675 38.9273 185.862 38.9156 186.008 38.8923C186.153 38.8631 186.27 38.8398 186.358 38.8223L186.778 40.6772C186.638 40.7297 186.442 40.7822 186.191 40.8347C185.941 40.893 185.623 40.9222 185.238 40.9222C184.654 40.9222 184.083 40.7968 183.523 40.546C182.969 40.2951 182.508 39.9131 182.14 39.3998C181.779 38.8865 181.598 38.239 181.598 37.4574V24.0881ZM198.194 41.0272C197.074 41.0272 196.085 40.7443 195.228 40.1785C194.37 39.6068 193.699 38.8019 193.215 37.7636C192.731 36.7195 192.489 35.4858 192.489 34.0625C192.489 32.6509 192.731 31.426 193.215 30.3877C193.699 29.3495 194.373 28.5474 195.236 27.9816C196.1 27.4158 197.097 27.1329 198.229 27.1329C199.104 27.1329 199.795 27.2787 200.302 27.5704C200.816 27.8562 201.206 28.1828 201.475 28.5503C201.749 28.912 201.962 29.2095 202.113 29.4428H202.288V22.8281H204.353V40.7472H202.358V38.6823H202.113C201.962 38.9273 201.746 39.2364 201.466 39.6098C201.186 39.9772 200.786 40.3068 200.267 40.5985C199.748 40.8843 199.057 41.0272 198.194 41.0272ZM198.474 39.1723C199.302 39.1723 200.002 38.9565 200.573 38.5248C201.145 38.0873 201.58 37.4836 201.877 36.7137C202.175 35.9379 202.323 35.0425 202.323 34.0275C202.323 33.0243 202.178 32.1464 201.886 31.3939C201.594 30.6356 201.163 30.0465 200.591 29.6265C200.019 29.2007 199.314 28.9878 198.474 28.9878C197.599 28.9878 196.87 29.2124 196.286 29.6615C195.709 30.1048 195.274 30.7085 194.983 31.4727C194.697 32.231 194.554 33.0826 194.554 34.0275C194.554 34.9842 194.7 35.8533 194.991 36.6349C195.289 37.4107 195.726 38.029 196.304 38.4898C196.887 38.9448 197.61 39.1723 198.474 39.1723ZM208.517 22.8281V24.403C208.517 24.8814 208.43 25.3917 208.255 25.9342C208.085 26.4709 207.835 26.9929 207.502 27.5004C207.175 28.002 206.779 28.4395 206.312 28.8128L205.192 27.9029C205.56 27.3779 205.878 26.8325 206.146 26.2667C206.42 25.6951 206.557 25.0855 206.557 24.438V22.8281H208.517ZM209.8 40.7472V22.8281H220.614V24.753H211.97V30.8077H220.054V32.7326H211.97V38.8223H220.754V40.7472H209.8ZM232.04 30.3177L230.185 30.8427C230.069 30.5336 229.897 30.2332 229.669 29.9415C229.447 29.644 229.144 29.399 228.759 29.2065C228.374 29.0141 227.881 28.9178 227.281 28.9178C226.458 28.9178 225.773 29.1074 225.224 29.4865C224.682 29.8598 224.411 30.3352 224.411 30.9127C224.411 31.426 224.597 31.8314 224.971 32.1289C225.344 32.4264 225.927 32.6743 226.721 32.8726L228.715 33.3626C229.917 33.6542 230.812 34.1005 231.402 34.7013C231.991 35.2962 232.285 36.0633 232.285 37.0024C232.285 37.7723 232.064 38.4606 231.62 39.0673C231.183 39.6739 230.57 40.1522 229.783 40.5022C228.995 40.8522 228.08 41.0272 227.036 41.0272C225.665 41.0272 224.53 40.7297 223.632 40.1347C222.734 39.5398 222.165 38.6706 221.926 37.5274L223.886 37.0374C224.072 37.7607 224.425 38.3032 224.944 38.6648C225.469 39.0264 226.155 39.2073 227.001 39.2073C227.963 39.2073 228.727 39.0031 229.293 38.5948C229.865 38.1807 230.15 37.6849 230.15 37.1074C230.15 36.6407 229.987 36.2499 229.66 35.9349C229.334 35.6141 228.832 35.375 228.155 35.2175L225.916 34.6925C224.685 34.4009 223.781 33.9488 223.203 33.3363C222.632 32.718 222.346 31.9452 222.346 31.0177C222.346 30.2594 222.559 29.5886 222.984 29.0053C223.416 28.422 224.002 27.9641 224.743 27.6316C225.49 27.2991 226.336 27.1329 227.281 27.1329C228.61 27.1329 229.655 27.4246 230.413 28.0079C231.177 28.5912 231.719 29.3611 232.04 30.3177ZM239.514 27.3079V29.0578H232.549V27.3079H239.514ZM234.579 24.0881H236.644V36.8974C236.644 37.4807 236.728 37.9182 236.897 38.2098C237.072 38.4956 237.294 38.6881 237.562 38.7873C237.837 38.8806 238.125 38.9273 238.429 38.9273C238.656 38.9273 238.843 38.9156 238.989 38.8923C239.134 38.8631 239.251 38.8398 239.339 38.8223L239.759 40.6772C239.619 40.7297 239.423 40.7822 239.172 40.8347C238.921 40.893 238.604 40.9222 238.219 40.9222C237.635 40.9222 237.064 40.7968 236.504 40.546C235.95 40.2951 235.489 39.9131 235.121 39.3998C234.76 38.8865 234.579 38.239 234.579 37.4574V24.0881ZM249.364 35.2525V27.3079H251.429V40.7472H249.364V38.4723H249.224C248.909 39.1548 248.419 39.7352 247.755 40.2135C247.09 40.6859 246.25 40.9222 245.235 40.9222C244.395 40.9222 243.648 40.7384 242.995 40.371C242.341 39.9976 241.828 39.4377 241.455 38.691C241.082 37.9386 240.895 36.9907 240.895 35.8474V27.3079H242.96V35.7075C242.96 36.6874 243.234 37.469 243.782 38.0523C244.336 38.6356 245.042 38.9273 245.9 38.9273C246.413 38.9273 246.935 38.796 247.466 38.5336C248.002 38.2711 248.452 37.8686 248.813 37.3261C249.181 36.7836 249.364 36.0924 249.364 35.2525ZM258.561 41.0272C257.441 41.0272 256.453 40.7443 255.595 40.1785C254.738 39.6068 254.067 38.8019 253.583 37.7636C253.099 36.7195 252.857 35.4858 252.857 34.0625C252.857 32.6509 253.099 31.426 253.583 30.3877C254.067 29.3495 254.741 28.5474 255.604 27.9816C256.467 27.4158 257.465 27.1329 258.596 27.1329C259.471 27.1329 260.163 27.2787 260.67 27.5704C261.183 27.8562 261.574 28.1828 261.842 28.5503C262.117 28.912 262.33 29.2095 262.481 29.4428H262.656V22.8281H264.721V40.7472H262.726V38.6823H262.481C262.33 38.9273 262.114 39.2364 261.834 39.6098C261.554 39.9772 261.154 40.3068 260.635 40.5985C260.116 40.8843 259.425 41.0272 258.561 41.0272ZM258.841 39.1723C259.67 39.1723 260.37 38.9565 260.941 38.5248C261.513 38.0873 261.947 37.4836 262.245 36.7137C262.542 35.9379 262.691 35.0425 262.691 34.0275C262.691 33.0243 262.545 32.1464 262.254 31.3939C261.962 30.6356 261.53 30.0465 260.959 29.6265C260.387 29.2007 259.681 28.9878 258.841 28.9878C257.966 28.9878 257.237 29.2124 256.654 29.6615C256.076 30.1048 255.642 30.7085 255.35 31.4727C255.064 32.231 254.922 33.0826 254.922 34.0275C254.922 34.9842 255.067 35.8533 255.359 36.6349C255.657 37.4107 256.094 38.029 256.671 38.4898C257.255 38.9448 257.978 39.1723 258.841 39.1723ZM267.065 40.7472V27.3079H269.13V40.7472H267.065ZM268.115 25.068C267.712 25.068 267.365 24.9309 267.074 24.6568C266.788 24.3826 266.645 24.0531 266.645 23.6681C266.645 23.2831 266.788 22.9535 267.074 22.6794C267.365 22.4052 267.712 22.2682 268.115 22.2682C268.517 22.2682 268.861 22.4052 269.147 22.6794C269.439 22.9535 269.585 23.2831 269.585 23.6681C269.585 24.0531 269.439 24.3826 269.147 24.6568C268.861 24.9309 268.517 25.068 268.115 25.068ZM280.707 30.3177L278.852 30.8427C278.735 30.5336 278.563 30.2332 278.335 29.9415C278.114 29.644 277.81 29.399 277.425 29.2065C277.04 29.0141 276.548 28.9178 275.947 28.9178C275.124 28.9178 274.439 29.1074 273.891 29.4865C273.348 29.8598 273.077 30.3352 273.077 30.9127C273.077 31.426 273.264 31.8314 273.637 32.1289C274.01 32.4264 274.594 32.6743 275.387 32.8726L277.382 33.3626C278.583 33.6542 279.479 34.1005 280.068 34.7013C280.657 35.2962 280.952 36.0633 280.952 37.0024C280.952 37.7723 280.73 38.4606 280.287 39.0673C279.849 39.6739 279.237 40.1522 278.449 40.5022C277.662 40.8522 276.746 41.0272 275.702 41.0272C274.331 41.0272 273.197 40.7297 272.298 40.1347C271.4 39.5398 270.831 38.6706 270.592 37.5274L272.552 37.0374C272.739 37.7607 273.092 38.3032 273.611 38.6648C274.136 39.0264 274.821 39.2073 275.667 39.2073C276.629 39.2073 277.393 39.0031 277.959 38.5948C278.531 38.1807 278.817 37.6849 278.817 37.1074C278.817 36.6407 278.653 36.2499 278.327 35.9349C278 35.6141 277.498 35.375 276.822 35.2175L274.582 34.6925C273.351 34.4009 272.447 33.9488 271.87 33.3363C271.298 32.718 271.012 31.9452 271.012 31.0177C271.012 30.2594 271.225 29.5886 271.651 29.0053C272.082 28.422 272.669 27.9641 273.409 27.6316C274.156 27.2991 275.002 27.1329 275.947 27.1329C277.277 27.1329 278.321 27.4246 279.079 28.0079C279.843 28.5912 280.386 29.3611 280.707 30.3177ZM121.17 66.7472V48.8281H131.914V50.753H123.34V56.8077H131.109V58.7326H123.34V66.7472H121.17ZM138.099 67.0272C136.886 67.0272 135.821 66.7384 134.906 66.161C133.996 65.5835 133.284 64.7756 132.771 63.7373C132.263 62.6991 132.01 61.4858 132.01 60.0975C132.01 58.6976 132.263 57.4756 132.771 56.4315C133.284 55.3874 133.996 54.5766 134.906 53.9991C135.821 53.4216 136.886 53.1329 138.099 53.1329C139.312 53.1329 140.374 53.4216 141.284 53.9991C142.2 54.5766 142.911 55.3874 143.419 56.4315C143.932 57.4756 144.189 58.6976 144.189 60.0975C144.189 61.4858 143.932 62.6991 143.419 63.7373C142.911 64.7756 142.2 65.5835 141.284 66.161C140.374 66.7384 139.312 67.0272 138.099 67.0272ZM138.099 65.1723C139.021 65.1723 139.779 64.936 140.374 64.4636C140.969 63.9911 141.409 63.3699 141.695 62.5999C141.981 61.8299 142.124 60.9958 142.124 60.0975C142.124 59.1993 141.981 58.3622 141.695 57.5864C141.409 56.8106 140.969 56.1836 140.374 55.7053C139.779 55.227 139.021 54.9878 138.099 54.9878C137.178 54.9878 136.419 55.227 135.824 55.7053C135.229 56.1836 134.789 56.8106 134.503 57.5864C134.217 58.3622 134.074 59.1993 134.074 60.0975C134.074 60.9958 134.217 61.8299 134.503 62.5999C134.789 63.3699 135.229 63.9911 135.824 64.4636C136.419 64.936 137.178 65.1723 138.099 65.1723ZM151.461 53.3079V55.0578H144.496V53.3079H151.461ZM146.526 50.0881H148.591V62.8974C148.591 63.4807 148.676 63.9182 148.845 64.2098C149.02 64.4956 149.241 64.6881 149.51 64.7873C149.784 64.8806 150.073 64.9273 150.376 64.9273C150.603 64.9273 150.79 64.9156 150.936 64.8923C151.082 64.8631 151.198 64.8398 151.286 64.8223L151.706 66.6772C151.566 66.7297 151.37 66.7822 151.12 66.8347C150.869 66.893 150.551 66.9222 150.166 66.9222C149.583 66.9222 149.011 66.7968 148.451 66.546C147.897 66.2951 147.436 65.9131 147.069 65.3998C146.707 64.8865 146.526 64.239 146.526 63.4574V50.0881ZM158.158 67.0272C156.944 67.0272 155.88 66.7384 154.964 66.161C154.054 65.5835 153.342 64.7756 152.829 63.7373C152.322 62.6991 152.068 61.4858 152.068 60.0975C152.068 58.6976 152.322 57.4756 152.829 56.4315C153.342 55.3874 154.054 54.5766 154.964 53.9991C155.88 53.4216 156.944 53.1329 158.158 53.1329C159.371 53.1329 160.433 53.4216 161.342 53.9991C162.258 54.5766 162.97 55.3874 163.477 56.4315C163.991 57.4756 164.247 58.6976 164.247 60.0975C164.247 61.4858 163.991 62.6991 163.477 63.7373C162.97 64.7756 162.258 65.5835 161.342 66.161C160.433 66.7384 159.371 67.0272 158.158 67.0272ZM158.158 65.1723C159.079 65.1723 159.838 64.936 160.433 64.4636C161.027 63.9911 161.468 63.3699 161.754 62.5999C162.04 61.8299 162.182 60.9958 162.182 60.0975C162.182 59.1993 162.04 58.3622 161.754 57.5864C161.468 56.8106 161.027 56.1836 160.433 55.7053C159.838 55.227 159.079 54.9878 158.158 54.9878C157.236 54.9878 156.478 55.227 155.883 55.7053C155.288 56.1836 154.847 56.8106 154.562 57.5864C154.276 58.3622 154.133 59.1993 154.133 60.0975C154.133 60.9958 154.276 61.8299 154.562 62.5999C154.847 63.3699 155.288 63.9911 155.883 64.4636C156.478 64.936 157.236 65.1723 158.158 65.1723ZM171.099 72.0669C170.102 72.0669 169.244 71.9386 168.527 71.6819C167.81 71.4311 167.212 71.0986 166.733 70.6845C166.261 70.2762 165.885 69.8387 165.605 69.3721L167.25 68.2171C167.436 68.4621 167.672 68.7421 167.958 69.0571C168.244 69.3779 168.635 69.655 169.131 69.8883C169.632 70.1274 170.289 70.247 171.099 70.247C172.184 70.247 173.08 69.9845 173.785 69.4596C174.491 68.9346 174.844 68.1121 174.844 66.9922V64.2623H174.669C174.517 64.5073 174.302 64.8106 174.022 65.1723C173.748 65.5281 173.351 65.846 172.832 66.126C172.318 66.4001 171.624 66.5372 170.749 66.5372C169.664 66.5372 168.69 66.2806 167.827 65.7672C166.97 65.2539 166.29 64.5073 165.788 63.5274C165.293 62.5474 165.045 61.3575 165.045 59.9575C165.045 58.581 165.287 57.3823 165.771 56.3615C166.255 55.3349 166.929 54.5416 167.792 53.9816C168.655 53.4158 169.653 53.1329 170.784 53.1329C171.659 53.1329 172.353 53.2787 172.867 53.5704C173.386 53.8562 173.783 54.1828 174.057 54.5503C174.337 54.912 174.552 55.2095 174.704 55.4428H174.914V53.3079H176.909V67.1322C176.909 68.2871 176.647 69.2262 176.122 69.9495C175.602 70.6787 174.902 71.2124 174.022 71.5507C173.147 71.8948 172.173 72.0669 171.099 72.0669ZM171.029 64.6823C171.858 64.6823 172.558 64.4927 173.129 64.1136C173.701 63.7344 174.135 63.189 174.433 62.4774C174.73 61.7658 174.879 60.9142 174.879 59.9225C174.879 58.9543 174.733 58.0997 174.442 57.3589C174.15 56.6181 173.718 56.0377 173.147 55.6178C172.575 55.1978 171.869 54.9878 171.029 54.9878C170.154 54.9878 169.425 55.2095 168.842 55.6528C168.264 56.0961 167.83 56.691 167.538 57.4377C167.252 58.1843 167.11 59.0126 167.11 59.9225C167.11 60.8558 167.255 61.6812 167.547 62.3987C167.845 63.1103 168.282 63.6703 168.859 64.0786C169.443 64.4811 170.166 64.6823 171.029 64.6823ZM184.809 53.3079V55.0578H177.844V53.3079H184.809ZM179.874 50.0881H181.939V62.8974C181.939 63.4807 182.024 63.9182 182.193 64.2098C182.368 64.4956 182.589 64.6881 182.858 64.7873C183.132 64.8806 183.421 64.9273 183.724 64.9273C183.951 64.9273 184.138 64.9156 184.284 64.8923C184.43 64.8631 184.546 64.8398 184.634 64.8223L185.054 66.6772C184.914 66.7297 184.718 66.7822 184.468 66.8347C184.217 66.893 183.899 66.9222 183.514 66.9222C182.931 66.9222 182.359 66.7968 181.799 66.546C181.245 66.2951 180.784 65.9131 180.417 65.3998C180.055 64.8865 179.874 64.239 179.874 63.4574V50.0881ZM186.19 66.7472V53.3079H188.185V55.3378H188.325C188.57 54.6728 189.013 54.1333 189.655 53.7191C190.297 53.305 191.02 53.0979 191.825 53.0979C191.977 53.0979 192.166 53.1008 192.394 53.1067C192.621 53.1125 192.793 53.1212 192.91 53.1329V55.2328C192.84 55.2153 192.679 55.189 192.429 55.154C192.184 55.1132 191.924 55.0928 191.65 55.0928C190.997 55.0928 190.413 55.2299 189.9 55.504C189.393 55.7723 188.99 56.1457 188.693 56.624C188.401 57.0964 188.255 57.636 188.255 58.2426V66.7472H186.19ZM197.588 67.0622C196.736 67.0622 195.963 66.9018 195.269 66.581C194.575 66.2543 194.024 65.7847 193.615 65.1723C193.207 64.554 193.003 63.8073 193.003 62.9324C193.003 62.1624 193.155 61.5383 193.458 61.06C193.761 60.5758 194.167 60.1967 194.674 59.9225C195.181 59.6484 195.741 59.4442 196.354 59.3101C196.972 59.1701 197.593 59.0593 198.218 58.9776C199.034 58.8726 199.696 58.7939 200.204 58.7414C200.717 58.683 201.09 58.5868 201.324 58.4526C201.563 58.3185 201.682 58.0851 201.682 57.7527V57.6827C201.682 56.8194 201.446 56.1486 200.974 55.6703C200.507 55.192 199.798 54.9528 198.848 54.9528C197.862 54.9528 197.089 55.1686 196.529 55.6003C195.969 56.0319 195.575 56.4927 195.348 56.9827L193.388 56.2827C193.738 55.4661 194.204 54.8303 194.788 54.3753C195.377 53.9145 196.019 53.5937 196.713 53.4129C197.413 53.2262 198.101 53.1329 198.778 53.1329C199.209 53.1329 199.705 53.1854 200.265 53.2904C200.831 53.3896 201.376 53.5966 201.901 53.9116C202.432 54.2266 202.872 54.702 203.222 55.3378C203.572 55.9736 203.747 56.8252 203.747 57.8927V66.7472H201.682V64.9273H201.577C201.437 65.2189 201.204 65.531 200.877 65.8635C200.551 66.196 200.116 66.4789 199.574 66.7122C199.031 66.9455 198.369 67.0622 197.588 67.0622ZM197.903 65.2073C198.719 65.2073 199.408 65.0469 199.968 64.726C200.533 64.4052 200.959 63.9911 201.245 63.4836C201.537 62.9761 201.682 62.4424 201.682 61.8824V59.9925C201.595 60.0975 201.402 60.1938 201.105 60.2813C200.813 60.3629 200.475 60.4359 200.09 60.5C199.711 60.5583 199.34 60.6108 198.979 60.6575C198.623 60.6983 198.334 60.7333 198.113 60.7625C197.576 60.8325 197.074 60.9462 196.608 61.1037C196.147 61.2554 195.774 61.4858 195.488 61.7949C195.208 62.0983 195.068 62.5124 195.068 63.0374C195.068 63.7548 195.333 64.2973 195.864 64.6648C196.401 65.0264 197.08 65.2073 197.903 65.2073ZM198.043 51.488L195.313 47.4282H197.728L199.863 51.488H198.043ZM211.776 53.3079V55.0578H204.532V53.3079H211.776ZM206.701 66.7472V51.453C206.701 50.683 206.882 50.0414 207.244 49.5281C207.606 49.0148 208.075 48.6298 208.653 48.3731C209.23 48.1165 209.84 47.9882 210.481 47.9882C210.989 47.9882 211.403 48.029 211.724 48.1107C212.044 48.1923 212.284 48.2682 212.441 48.3381L211.846 50.1231C211.741 50.0881 211.595 50.0443 211.409 49.9918C211.228 49.9393 210.989 49.9131 210.691 49.9131C210.009 49.9131 209.516 50.0851 209.213 50.4293C208.915 50.7734 208.766 51.278 208.766 51.943V66.7472H206.701ZM212.945 66.7472V53.3079H215.01V66.7472H212.945ZM213.995 51.068C213.593 51.068 213.246 50.9309 212.954 50.6568C212.668 50.3826 212.525 50.0531 212.525 49.6681C212.525 49.2831 212.668 48.9535 212.954 48.6794C213.246 48.4052 213.593 48.2682 213.995 48.2682C214.398 48.2682 214.742 48.4052 215.028 48.6794C215.319 48.9535 215.465 49.2831 215.465 49.6681C215.465 50.0531 215.319 50.3826 215.028 50.6568C214.742 50.9309 214.398 51.068 213.995 51.068ZM222.527 67.0272C221.267 67.0272 220.182 66.7297 219.272 66.1347C218.362 65.5398 217.662 64.7202 217.173 63.6761C216.683 62.632 216.438 61.4391 216.438 60.0975C216.438 58.7326 216.688 57.5281 217.19 56.484C217.697 55.434 218.403 54.6145 219.307 54.0254C220.217 53.4304 221.279 53.1329 222.492 53.1329C223.437 53.1329 224.289 53.3079 225.047 53.6579C225.805 54.0079 226.427 54.4978 226.911 55.1278C227.395 55.7578 227.695 56.4927 227.812 57.3327H225.747C225.59 56.7202 225.24 56.1777 224.697 55.7053C224.16 55.227 223.437 54.9878 222.527 54.9878C221.722 54.9878 221.016 55.1978 220.41 55.6178C219.809 56.0319 219.339 56.6181 219.001 57.3764C218.669 58.1289 218.502 59.0126 218.502 60.0275C218.502 61.0658 218.666 61.9699 218.992 62.7399C219.325 63.5099 219.792 64.1077 220.392 64.5336C220.999 64.9594 221.711 65.1723 222.527 65.1723C223.064 65.1723 223.551 65.0789 223.988 64.8923C224.426 64.7056 224.796 64.4373 225.1 64.0873C225.403 63.7373 225.619 63.3174 225.747 62.8274H227.812C227.695 63.6207 227.407 64.3352 226.946 64.971C226.491 65.601 225.887 66.1026 225.135 66.476C224.388 66.8434 223.519 67.0272 222.527 67.0272ZM238.625 56.3177L236.77 56.8427C236.654 56.5336 236.482 56.2332 236.254 55.9415C236.033 55.644 235.729 55.399 235.344 55.2065C234.959 55.0141 234.466 54.9178 233.866 54.9178C233.043 54.9178 232.358 55.1074 231.809 55.4865C231.267 55.8598 230.996 56.3352 230.996 56.9127C230.996 57.426 231.182 57.8314 231.556 58.1289C231.929 58.4264 232.512 58.6743 233.306 58.8726L235.301 59.3626C236.502 59.6542 237.397 60.1005 237.987 60.7013C238.576 61.2962 238.87 62.0633 238.87 63.0024C238.87 63.7723 238.649 64.4606 238.205 65.0673C237.768 65.6739 237.155 66.1522 236.368 66.5022C235.581 66.8522 234.665 67.0272 233.621 67.0272C232.25 67.0272 231.115 66.7297 230.217 66.1347C229.319 65.5398 228.75 64.6706 228.511 63.5274L230.471 63.0374C230.657 63.7607 231.01 64.3032 231.529 64.6648C232.054 65.0264 232.74 65.2073 233.586 65.2073C234.548 65.2073 235.312 65.0031 235.878 64.5948C236.45 64.1807 236.735 63.6849 236.735 63.1074C236.735 62.6407 236.572 62.2499 236.245 61.9349C235.919 61.6141 235.417 61.375 234.741 61.2175L232.501 60.6925C231.27 60.4009 230.366 59.9488 229.788 59.3363C229.217 58.718 228.931 57.9452 228.931 57.0177C228.931 56.2594 229.144 55.5886 229.57 55.0053C230.001 54.422 230.587 53.9641 231.328 53.6316C232.075 53.2991 232.921 53.1329 233.866 53.1329C235.196 53.1329 236.24 53.4246 236.998 54.0079C237.762 54.5912 238.305 55.3611 238.625 56.3177ZM125.965 93.0272C124.845 93.0272 123.856 92.7443 122.999 92.1785C122.141 91.6068 121.47 90.8019 120.986 89.7636C120.502 88.7195 120.26 87.4858 120.26 86.0625C120.26 84.6509 120.502 83.426 120.986 82.3877C121.47 81.3495 122.144 80.5474 123.007 79.9816C123.871 79.4158 124.868 79.1329 126 79.1329C126.875 79.1329 127.566 79.2787 128.073 79.5704C128.587 79.8562 128.977 80.1828 129.246 80.5503C129.52 80.912 129.733 81.2095 129.884 81.4428H130.059V74.8281H132.124V92.7472H130.129V90.6823H129.884C129.733 90.9273 129.517 91.2364 129.237 91.6098C128.957 91.9772 128.557 92.3068 128.038 92.5985C127.519 92.8843 126.828 93.0272 125.965 93.0272ZM126.245 91.1723C127.073 91.1723 127.773 90.9565 128.345 90.5248C128.916 90.0873 129.351 89.4836 129.648 88.7137C129.946 87.9379 130.094 87.0425 130.094 86.0275C130.094 85.0243 129.949 84.1464 129.657 83.3939C129.365 82.6356 128.934 82.0465 128.362 81.6265C127.79 81.2007 127.085 80.9878 126.245 80.9878C125.37 80.9878 124.641 81.2124 124.057 81.6615C123.48 82.1048 123.045 82.7085 122.754 83.4727C122.468 84.231 122.325 85.0826 122.325 86.0275C122.325 86.9842 122.471 87.8533 122.762 88.6349C123.06 89.4107 123.497 90.029 124.075 90.4898C124.658 90.9448 125.381 91.1723 126.245 91.1723ZM140.103 93.0272C138.808 93.0272 137.691 92.7414 136.752 92.1697C135.818 91.5923 135.098 90.7873 134.591 89.7548C134.089 88.7166 133.838 87.5091 133.838 86.1325C133.838 84.7559 134.089 83.5427 134.591 82.4927C135.098 81.4369 135.804 80.6145 136.708 80.0254C137.618 79.4304 138.68 79.1329 139.893 79.1329C140.593 79.1329 141.284 79.2496 141.967 79.4829C142.649 79.7162 143.27 80.0954 143.83 80.6203C144.39 81.1395 144.836 81.8278 145.169 82.6852C145.501 83.5427 145.668 84.5984 145.668 85.8526V86.7275H135.308V84.9426H143.568C143.568 84.1843 143.416 83.5077 143.113 82.9127C142.815 82.3177 142.389 81.8482 141.835 81.504C141.287 81.1599 140.639 80.9878 139.893 80.9878C139.07 80.9878 138.359 81.192 137.758 81.6003C137.163 82.0028 136.705 82.5277 136.384 83.1752C136.063 83.8227 135.903 84.5168 135.903 85.2576V86.4475C135.903 87.4625 136.078 88.3228 136.428 89.0286C136.784 89.7286 137.277 90.2623 137.907 90.6298C138.537 90.9915 139.269 91.1723 140.103 91.1723C140.645 91.1723 141.135 91.0964 141.573 90.9448C142.016 90.7873 142.398 90.554 142.719 90.2448C143.04 89.9298 143.288 89.539 143.463 89.0724L145.458 89.6324C145.248 90.309 144.895 90.904 144.399 91.4173C143.903 91.9247 143.291 92.3214 142.561 92.6072C141.832 92.8872 141.013 93.0272 140.103 93.0272ZM166.988 80.4278H164.818C164.69 79.8037 164.465 79.2554 164.145 78.7829C163.83 78.3104 163.445 77.9138 162.99 77.593C162.54 77.2663 162.042 77.0213 161.493 76.858C160.945 76.6947 160.373 76.613 159.778 76.613C158.694 76.613 157.711 76.8872 156.83 77.4355C155.955 77.9838 155.258 78.7917 154.739 79.8591C154.225 80.9266 153.969 82.2361 153.969 83.7877C153.969 85.3392 154.225 86.6488 154.739 87.7162C155.258 88.7836 155.955 89.5915 156.83 90.1398C157.711 90.6881 158.694 90.9623 159.778 90.9623C160.373 90.9623 160.945 90.8806 161.493 90.7173C162.042 90.554 162.54 90.3119 162.99 89.9911C163.445 89.6644 163.83 89.2649 164.145 88.7924C164.465 88.3141 164.69 87.7658 164.818 87.1475H166.988C166.825 88.0633 166.527 88.8828 166.096 89.6061C165.664 90.3294 165.127 90.9448 164.486 91.4523C163.844 91.9539 163.124 92.336 162.325 92.5985C161.531 92.8609 160.683 92.9922 159.778 92.9922C158.25 92.9922 156.891 92.6189 155.701 91.8722C154.511 91.1256 153.575 90.064 152.893 88.6874C152.21 87.3108 151.869 85.6776 151.869 83.7877C151.869 81.8978 152.21 80.2645 152.893 78.8879C153.575 77.5113 154.511 76.4497 155.701 75.7031C156.891 74.9565 158.25 74.5831 159.778 74.5831C160.683 74.5831 161.531 74.7144 162.325 74.9769C163.124 75.2394 163.844 75.6243 164.486 76.1318C165.127 76.6334 165.664 77.2459 166.096 77.9692C166.527 78.6867 166.825 79.5062 166.988 80.4278ZM172.445 93.0622C171.593 93.0622 170.82 92.9018 170.126 92.581C169.432 92.2543 168.881 91.7847 168.472 91.1723C168.064 90.554 167.86 89.8073 167.86 88.9324C167.86 88.1624 168.011 87.5383 168.315 87.06C168.618 86.5758 169.024 86.1967 169.531 85.9225C170.038 85.6484 170.598 85.4442 171.211 85.3101C171.829 85.1701 172.45 85.0593 173.075 84.9776C173.891 84.8726 174.553 84.7939 175.061 84.7414C175.574 84.683 175.947 84.5868 176.181 84.4526C176.42 84.3185 176.539 84.0851 176.539 83.7527V83.6827C176.539 82.8194 176.303 82.1486 175.831 81.6703C175.364 81.192 174.655 80.9528 173.705 80.9528C172.719 80.9528 171.946 81.1686 171.386 81.6003C170.826 82.0319 170.432 82.4927 170.205 82.9827L168.245 82.2827C168.595 81.4661 169.061 80.8303 169.645 80.3753C170.234 79.9145 170.875 79.5937 171.57 79.4129C172.27 79.2262 172.958 79.1329 173.635 79.1329C174.066 79.1329 174.562 79.1854 175.122 79.2904C175.688 79.3896 176.233 79.5966 176.758 79.9116C177.289 80.2266 177.729 80.702 178.079 81.3378C178.429 81.9736 178.604 82.8252 178.604 83.8927V92.7472H176.539V90.9273H176.434C176.294 91.2189 176.061 91.531 175.734 91.8635C175.408 92.196 174.973 92.4789 174.431 92.7122C173.888 92.9455 173.226 93.0622 172.445 93.0622ZM172.76 91.2073C173.576 91.2073 174.264 91.0469 174.824 90.726C175.39 90.4052 175.816 89.9911 176.102 89.4836C176.394 88.9761 176.539 88.4424 176.539 87.8824V85.9925C176.452 86.0975 176.259 86.1938 175.962 86.2813C175.67 86.3629 175.332 86.4359 174.947 86.5C174.568 86.5583 174.197 86.6108 173.836 86.6575C173.48 86.6983 173.191 86.7333 172.97 86.7625C172.433 86.8325 171.931 86.9462 171.465 87.1037C171.004 87.2554 170.631 87.4858 170.345 87.7949C170.065 88.0983 169.925 88.5124 169.925 89.0374C169.925 89.7548 170.19 90.2973 170.721 90.6648C171.258 91.0264 171.937 91.2073 172.76 91.2073ZM186.493 79.3079V81.0578H179.528V79.3079H186.493ZM181.558 76.0881H183.623V88.8974C183.623 89.4807 183.708 89.9182 183.877 90.2098C184.052 90.4956 184.274 90.6881 184.542 90.7873C184.816 90.8806 185.105 90.9273 185.408 90.9273C185.636 90.9273 185.822 90.9156 185.968 90.8923C186.114 90.8631 186.231 90.8398 186.318 90.8223L186.738 92.6772C186.598 92.7297 186.403 92.7822 186.152 92.8347C185.901 92.893 185.583 92.9222 185.198 92.9222C184.615 92.9222 184.043 92.7968 183.483 92.546C182.929 92.2951 182.468 91.9131 182.101 91.3998C181.739 90.8865 181.558 90.239 181.558 89.4574V76.0881ZM191.829 93.0622C190.978 93.0622 190.205 92.9018 189.511 92.581C188.817 92.2543 188.265 91.7847 187.857 91.1723C187.449 90.554 187.245 89.8073 187.245 88.9324C187.245 88.1624 187.396 87.5383 187.699 87.06C188.003 86.5758 188.408 86.1967 188.916 85.9225C189.423 85.6484 189.983 85.4442 190.596 85.3101C191.214 85.1701 191.835 85.0593 192.459 84.9776C193.276 84.8726 193.938 84.7939 194.445 84.7414C194.959 84.683 195.332 84.5868 195.565 84.4526C195.804 84.3185 195.924 84.0851 195.924 83.7527V83.6827C195.924 82.8194 195.688 82.1486 195.215 81.6703C194.749 81.192 194.04 80.9528 193.089 80.9528C192.103 80.9528 191.331 81.1686 190.771 81.6003C190.211 82.0319 189.817 82.4927 189.589 82.9827L187.63 82.2827C187.979 81.4661 188.446 80.8303 189.029 80.3753C189.619 79.9145 190.26 79.5937 190.954 79.4129C191.654 79.2262 192.343 79.1329 193.019 79.1329C193.451 79.1329 193.947 79.1854 194.507 79.2904C195.072 79.3896 195.618 79.5966 196.143 79.9116C196.674 80.2266 197.114 80.702 197.464 81.3378C197.814 81.9736 197.989 82.8252 197.989 83.8927V92.7472H195.924V90.9273H195.819C195.679 91.2189 195.446 91.531 195.119 91.8635C194.792 92.196 194.358 92.4789 193.815 92.7122C193.273 92.9455 192.611 93.0622 191.829 93.0622ZM192.144 91.2073C192.961 91.2073 193.649 91.0469 194.209 90.726C194.775 90.4052 195.201 89.9911 195.487 89.4836C195.778 88.9761 195.924 88.4424 195.924 87.8824V85.9925C195.837 86.0975 195.644 86.1938 195.347 86.2813C195.055 86.3629 194.717 86.4359 194.332 86.5C193.953 86.5583 193.582 86.6108 193.22 86.6575C192.865 86.6983 192.576 86.7333 192.354 86.7625C191.818 86.8325 191.316 86.9462 190.849 87.1037C190.389 87.2554 190.015 87.4858 189.729 87.7949C189.449 88.0983 189.309 88.5124 189.309 89.0374C189.309 89.7548 189.575 90.2973 190.106 90.6648C190.642 91.0264 191.322 91.2073 192.144 91.2073ZM202.098 74.8281V92.7472H200.033V74.8281H202.098ZM212.625 87.2525V79.3079H214.69V92.7472H212.625V90.4723H212.485C212.17 91.1548 211.68 91.7352 211.015 92.2135C210.35 92.6859 209.51 92.9222 208.495 92.9222C207.655 92.9222 206.908 92.7384 206.255 92.371C205.602 91.9976 205.089 91.4377 204.715 90.691C204.342 89.9386 204.155 88.9907 204.155 87.8474V79.3079H206.22V87.7075C206.22 88.6874 206.494 89.469 207.043 90.0523C207.597 90.6356 208.303 90.9273 209.16 90.9273C209.673 90.9273 210.195 90.796 210.726 90.5336C211.263 90.2711 211.712 89.8686 212.074 89.3261C212.441 88.7836 212.625 88.0924 212.625 87.2525ZM218.812 84.6626V92.7472H216.747V79.3079H218.742V81.4078H218.917C219.232 80.7253 219.71 80.177 220.352 79.7629C220.993 79.3429 221.822 79.1329 222.837 79.1329C223.747 79.1329 224.543 79.3196 225.225 79.6929C225.908 80.0604 226.439 80.6203 226.818 81.3728C227.197 82.1194 227.386 83.0644 227.386 84.2076V92.7472H225.322V84.3476C225.322 83.2919 225.047 82.4694 224.499 81.8803C223.951 81.2853 223.198 80.9878 222.242 80.9878C221.583 80.9878 220.993 81.1307 220.474 81.4165C219.961 81.7024 219.556 82.1194 219.258 82.6677C218.961 83.216 218.812 83.881 218.812 84.6626ZM230.284 97.7869C229.934 97.7869 229.622 97.7578 229.348 97.6994C229.073 97.6469 228.884 97.5944 228.779 97.5419L229.304 95.722C229.805 95.8504 230.249 95.897 230.634 95.862C231.019 95.827 231.36 95.655 231.657 95.3458C231.961 95.0425 232.238 94.5496 232.489 93.8671L232.874 92.8172L227.904 79.3079H230.144L233.854 90.0173H233.994L237.703 79.3079H239.943L234.239 94.7071C233.982 95.4012 233.664 95.9758 233.285 96.4308C232.906 96.8916 232.465 97.2328 231.964 97.4544C231.468 97.6761 230.908 97.7869 230.284 97.7869ZM244.49 93.0622C243.638 93.0622 242.865 92.9018 242.171 92.581C241.477 92.2543 240.926 91.7847 240.517 91.1723C240.109 90.554 239.905 89.8073 239.905 88.9324C239.905 88.1624 240.057 87.5383 240.36 87.06C240.663 86.5758 241.069 86.1967 241.576 85.9225C242.084 85.6484 242.644 85.4442 243.256 85.3101C243.874 85.1701 244.496 85.0593 245.12 84.9776C245.936 84.8726 246.598 84.7939 247.106 84.7414C247.619 84.683 247.992 84.5868 248.226 84.4526C248.465 84.3185 248.585 84.0851 248.585 83.7527V83.6827C248.585 82.8194 248.348 82.1486 247.876 81.6703C247.409 81.192 246.7 80.9528 245.75 80.9528C244.764 80.9528 243.991 81.1686 243.431 81.6003C242.871 82.0319 242.477 82.4927 242.25 82.9827L240.29 82.2827C240.64 81.4661 241.107 80.8303 241.69 80.3753C242.279 79.9145 242.921 79.5937 243.615 79.4129C244.315 79.2262 245.003 79.1329 245.68 79.1329C246.111 79.1329 246.607 79.1854 247.167 79.2904C247.733 79.3896 248.278 79.5966 248.803 79.9116C249.334 80.2266 249.774 80.702 250.124 81.3378C250.474 81.9736 250.649 82.8252 250.649 83.8927V92.7472H248.585V90.9273H248.48C248.34 91.2189 248.106 91.531 247.78 91.8635C247.453 92.196 247.018 92.4789 246.476 92.7122C245.933 92.9455 245.271 93.0622 244.49 93.0622ZM244.805 91.2073C245.621 91.2073 246.31 91.0469 246.87 90.726C247.435 90.4052 247.861 89.9911 248.147 89.4836C248.439 88.9761 248.585 88.4424 248.585 87.8824V85.9925C248.497 86.0975 248.305 86.1938 248.007 86.2813C247.715 86.3629 247.377 86.4359 246.992 86.5C246.613 86.5583 246.243 86.6108 245.881 86.6575C245.525 86.6983 245.236 86.7333 245.015 86.7625C244.478 86.8325 243.976 86.9462 243.51 87.1037C243.049 87.2554 242.676 87.4858 242.39 87.7949C242.11 88.0983 241.97 88.5124 241.97 89.0374C241.97 89.7548 242.235 90.2973 242.766 90.6648C243.303 91.0264 243.982 91.2073 244.805 91.2073Z" fill="black"/>
<path d="M114.697 113.394H9.77441V5.08282H114.697V113.394ZM104.304 42.4139C104.304 42.4139 100.233 41.2453 96.8887 41.4695C93.544 41.6939 90.316 42.7885 87.5244 44.6443C84.7327 46.5002 82.4739 49.0533 80.9727 52.0506C79.4715 55.0478 78.7793 58.3853 78.9648 61.7322C79.1504 65.0794 80.2078 68.3207 82.0312 71.1336C83.8547 73.9464 86.3817 76.2336 89.3613 77.7693C92.3411 79.3052 95.6705 80.0363 99.0195 79.8895C102.351 79.7433 105.625 78.5588 105.658 78.5467V72.5076C103.595 73.8111 101.228 74.553 98.79 74.66C96.3521 74.7669 93.9279 74.235 91.7588 73.117C89.5898 71.999 87.7502 70.3335 86.4229 68.2859C85.0956 66.2384 84.3266 63.8795 84.1914 61.4432C84.0563 59.0066 84.5604 56.5763 85.6533 54.3943C86.7461 52.2127 88.3899 50.3546 90.4219 49.0037C92.4541 47.6527 94.8044 46.8555 97.2393 46.6922C99.674 46.529 102.109 47.0045 104.304 48.0721V42.4139ZM22.5479 40.6658C20.684 40.6658 20.045 40.7048 20.0059 40.8221C19.9668 40.9154 19.9538 49.0607 19.9668 58.9129L20.0059 76.8348L22.5215 76.8738L25.0244 76.9002V40.6658H22.5479ZM50.1533 40.744C49.8123 40.6658 30.6061 40.6654 30.1465 40.7567L29.8467 40.8094V76.9002L40.1172 76.8738L50.375 76.8348L50.4141 74.5926C50.4401 72.6899 50.4136 72.3376 50.2441 72.1551C50.0478 71.973 49.2226 71.9471 42.6719 71.9471H35.3213V58.6522L42.8545 58.6268L50.375 58.5877V53.6346L42.8545 53.5955L35.3213 53.5692V45.7488H50.2842L50.3623 45.3445C50.4014 45.1221 50.4404 44.0149 50.4404 42.8817C50.4404 40.8614 50.4401 40.8222 50.1533 40.744ZM65.4033 40.6922C59.8972 40.6792 55.4044 40.7047 55.3926 40.7567V76.8348L57.8691 76.8738L60.3457 76.9002V67.9715C60.3457 62.1064 60.3853 59.0438 60.4766 59.0438C60.5546 59.0435 60.6064 58.9516 60.6064 58.8475C60.6082 58.6785 61.5253 58.6522 68.0361 58.6522H75.4648L75.4395 56.1365L75.4004 53.6346L68.0752 53.5955C63.3393 53.5825 60.7465 53.5173 60.7373 53.4393C60.7373 53.3611 60.6453 53.3084 60.541 53.3084C60.3719 53.3077 60.3457 52.798 60.3457 49.5291V45.7488L67.8799 45.7225L75.4004 45.6834V40.7313L65.4033 40.6922Z" fill="black"/>
</svg>
