<svg width="80" height="80" viewBox="0 0 80 80" fill="none" xmlns="http://www.w3.org/2000/svg">
<g clip-path="url(#clip0_2323_164)">
<path d="M60.0001 10C63.5363 10 66.9277 11.4048 69.4282 13.9052C71.9286 16.4057 73.3334 19.7971 73.3334 23.3333V50C73.3334 53.5362 71.9286 56.9276 69.4282 59.4281C66.9277 61.9286 63.5363 63.3333 60.0001 63.3333H44.2534L28.3801 72.8567C27.902 73.1435 27.3597 73.3059 26.8027 73.329C26.2456 73.352 25.6917 73.235 25.1916 72.9886C24.6915 72.7422 24.2612 72.3743 23.9401 71.9186C23.6189 71.4628 23.4172 70.9338 23.3534 70.38L23.3334 70V63.3333H20.0001C16.5793 63.3333 13.2893 62.0186 10.8107 59.6609C8.3321 57.3033 6.85446 54.0832 6.68342 50.6667L6.66675 50V23.3333C6.66675 19.7971 8.07151 16.4057 10.572 13.9052C13.0725 11.4048 16.4639 10 20.0001 10H60.0001ZM46.6667 40H26.6667C25.7827 40 24.9348 40.3512 24.3097 40.9763C23.6846 41.6014 23.3334 42.4493 23.3334 43.3333C23.3334 44.2174 23.6846 45.0652 24.3097 45.6904C24.9348 46.3155 25.7827 46.6667 26.6667 46.6667H46.6667C47.5508 46.6667 48.3986 46.3155 49.0238 45.6904C49.6489 45.0652 50.0001 44.2174 50.0001 43.3333C50.0001 42.4493 49.6489 41.6014 49.0238 40.9763C48.3986 40.3512 47.5508 40 46.6667 40ZM53.3334 26.6667H26.6667C25.7827 26.6667 24.9348 27.0179 24.3097 27.643C23.6846 28.2681 23.3334 29.1159 23.3334 30C23.3334 30.8841 23.6846 31.7319 24.3097 32.357C24.9348 32.9821 25.7827 33.3333 26.6667 33.3333H53.3334C54.2175 33.3333 55.0653 32.9821 55.6904 32.357C56.3156 31.7319 56.6667 30.8841 56.6667 30C56.6667 29.1159 56.3156 28.2681 55.6904 27.643C55.0653 27.0179 54.2175 26.6667 53.3334 26.6667Z" fill="#171717"/>
</g>
<defs>
<clipPath id="clip0_2323_164">
<rect width="80" height="80" fill="white"/>
</clipPath>
</defs>
</svg>
