<svg width="80" height="80" viewBox="0 0 80 80" fill="none" xmlns="http://www.w3.org/2000/svg">
<path d="M44.5545 11.4977L50.3398 23.1641C51.1288 24.7881 53.2325 26.3458 55.0078 26.6441L65.4936 28.4006C72.1994 29.5275 73.7774 34.4327 68.9451 39.2716L60.7931 47.491C59.4123 48.8829 58.6565 51.5675 59.0836 53.49L61.4177 63.6648C63.2584 71.7186 59.0178 74.8341 51.9507 70.6248L42.1221 64.7586C40.3471 63.698 37.4216 63.698 35.6135 64.7586L25.7851 70.6248C18.7506 74.8341 14.4773 71.6854 16.3181 63.6648L18.652 53.49C19.0793 51.5675 18.3233 48.8829 16.9426 47.491L8.79056 39.2716C3.99134 34.4327 5.5363 29.5275 12.242 28.4006L22.728 26.6441C24.4702 26.3458 26.574 24.7881 27.3629 23.1641L33.1482 11.4977C36.3038 5.16742 41.4317 5.16742 44.5545 11.4977Z" fill="#171717" stroke="#171717" stroke-width="2.6787" stroke-linecap="round" stroke-linejoin="round"/>
</svg>
